<svg width="301" height="72.803" viewBox="0 0 301 90" xmlns="http://www.w3.org/2000/svg"><g id="svgGroup" stroke-linecap="round" fill-rule="evenodd" font-size="9pt" stroke="#000" stroke-width="0.25mm" fill="#fbfdff" style="stroke:#000;stroke-width:0.25mm;fill:#fbfdff"><path d="M 66 1.401 L 43.2 71.401 L 22.8 71.401 L 0 1.401 L 17.5 1.401 L 33 52.901 L 48.5 1.401 L 66 1.401 Z" id="0" vector-effect="non-scaling-stroke"/><path d="M 78.787 69.913 A 9.127 9.127 0 0 0 81.5 63.301 A 9.488 9.488 0 0 0 81.038 60.314 A 9.364 9.364 0 0 0 78.7 56.601 A 11.293 11.293 0 0 0 78.612 56.514 A 9.127 9.127 0 0 0 72 53.801 A 9.488 9.488 0 0 0 69.013 54.263 A 9.364 9.364 0 0 0 65.3 56.601 A 11.293 11.293 0 0 0 65.213 56.689 A 9.127 9.127 0 0 0 62.5 63.301 A 9.488 9.488 0 0 0 62.962 66.288 A 9.364 9.364 0 0 0 65.3 70.001 A 11.293 11.293 0 0 0 65.388 70.088 A 9.127 9.127 0 0 0 72 72.801 A 9.488 9.488 0 0 0 74.987 72.339 A 9.364 9.364 0 0 0 78.7 70.001 A 11.293 11.293 0 0 0 78.787 69.913 Z" id="1" vector-effect="non-scaling-stroke"/><path d="M 150.4 16.201 L 136.6 24.201 Q 134.3 20.101 130.05 17.851 Q 125.8 15.601 120.4 15.601 Q 111 15.601 105.5 21.301 A 18.713 18.713 0 0 0 100.537 30.844 A 27.325 27.325 0 0 0 100 36.401 Q 100 45.901 105.5 51.501 A 18.252 18.252 0 0 0 115.616 56.787 A 26.419 26.419 0 0 0 120.4 57.201 A 21.139 21.139 0 0 0 127.093 56.163 A 19.323 19.323 0 0 0 130.05 54.901 A 16.428 16.428 0 0 0 134.458 51.571 A 14.89 14.89 0 0 0 136.6 48.601 L 150.4 56.601 Q 145.9 64.101 137.9 68.451 Q 129.9 72.801 120.4 72.801 A 38.883 38.883 0 0 1 106.846 70.516 A 34.469 34.469 0 0 1 94.3 62.401 Q 84 52.001 84 36.401 A 38.737 38.737 0 0 1 86.226 23.043 A 34.101 34.101 0 0 1 94.3 10.501 A 34.616 34.616 0 0 1 118.446 0.042 A 46.05 46.05 0 0 1 120.4 0.001 Q 129.8 0.001 137.8 4.351 Q 145.8 8.701 150.4 16.201 Z" id="2" vector-effect="non-scaling-stroke"/><path d="M 170.687 69.913 A 9.127 9.127 0 0 0 173.4 63.301 A 9.488 9.488 0 0 0 172.938 60.314 A 9.364 9.364 0 0 0 170.6 56.601 A 11.293 11.293 0 0 0 170.512 56.514 A 9.127 9.127 0 0 0 163.9 53.801 A 9.488 9.488 0 0 0 160.913 54.263 A 9.364 9.364 0 0 0 157.2 56.601 A 11.293 11.293 0 0 0 157.113 56.689 A 9.127 9.127 0 0 0 154.4 63.301 A 9.488 9.488 0 0 0 154.862 66.288 A 9.364 9.364 0 0 0 157.2 70.001 A 11.293 11.293 0 0 0 157.288 70.088 A 9.127 9.127 0 0 0 163.9 72.801 A 9.488 9.488 0 0 0 166.887 72.339 A 9.364 9.364 0 0 0 170.6 70.001 A 11.293 11.293 0 0 0 170.687 69.913 Z" id="3" vector-effect="non-scaling-stroke"/><path d="M 224.9 43.601 L 199.9 43.601 L 199.9 56.001 L 227.9 56.001 L 227.9 71.401 L 183.9 71.401 L 183.9 1.401 L 227.4 1.401 L 227.4 16.801 L 199.9 16.801 L 199.9 28.401 L 224.9 28.401 L 224.9 43.601 Z" id="4" vector-effect="non-scaling-stroke"/><path d="M 251.687 69.913 A 9.127 9.127 0 0 0 254.4 63.301 A 9.488 9.488 0 0 0 253.938 60.314 A 9.364 9.364 0 0 0 251.6 56.601 A 11.293 11.293 0 0 0 251.512 56.514 A 9.127 9.127 0 0 0 244.9 53.801 A 9.488 9.488 0 0 0 241.913 54.263 A 9.364 9.364 0 0 0 238.2 56.601 A 11.293 11.293 0 0 0 238.113 56.689 A 9.127 9.127 0 0 0 235.4 63.301 A 9.488 9.488 0 0 0 235.862 66.288 A 9.364 9.364 0 0 0 238.2 70.001 A 11.293 11.293 0 0 0 238.288 70.088 A 9.127 9.127 0 0 0 244.9 72.801 A 9.488 9.488 0 0 0 247.887 72.339 A 9.364 9.364 0 0 0 251.6 70.001 A 11.293 11.293 0 0 0 251.687 69.913 Z" id="5" vector-effect="non-scaling-stroke"/><path d="M 249.9 16.801 L 249.9 1.401 L 301.9 1.401 L 301.9 16.801 L 283.9 16.801 L 283.9 71.401 L 267.9 71.401 L 267.9 16.801 L 249.9 16.801 Z" id="6" vector-effect="non-scaling-stroke"/></g></svg>